<mxfile host="app.diagrams.net" modified="2024-02-25T23:26:42.531Z" agent="Mozilla/5.0 (Macintosh; Intel Mac OS X 10_15_7) AppleWebKit/537.36 (KHTML, like Gecko) Chrome/121.0.0.0 Safari/537.36" etag="PN3rtfHnJCjUuh6Jlzjc" version="23.1.6" type="device">
  <diagram name="Page-1" id="AsNBD68WmXlKK2rAg6yS">
    <mxGraphModel dx="1232" dy="809" grid="1" gridSize="10" guides="1" tooltips="1" connect="1" arrows="1" fold="1" page="1" pageScale="1" pageWidth="827" pageHeight="1169" math="0" shadow="0">
      <root>
        <mxCell id="0" />
        <mxCell id="1" parent="0" />
        <mxCell id="fNvnmYlMusPUi0bq2ksU-29" value="&lt;font style=&quot;font-size: 36px;&quot;&gt;flatten&lt;/font&gt;" style="text;html=1;align=center;verticalAlign=middle;whiteSpace=wrap;rounded=0;" parent="1" vertex="1">
          <mxGeometry x="40" y="280" width="120" height="80" as="geometry" />
        </mxCell>
        <mxCell id="fNvnmYlMusPUi0bq2ksU-32" value="" style="group" parent="1" vertex="1" connectable="0">
          <mxGeometry x="180" y="260" width="120" height="120" as="geometry" />
        </mxCell>
        <mxCell id="fNvnmYlMusPUi0bq2ksU-1" value="" style="whiteSpace=wrap;html=1;aspect=fixed;fillColor=#FFE599;" parent="fNvnmYlMusPUi0bq2ksU-32" vertex="1">
          <mxGeometry width="40" height="40" as="geometry" />
        </mxCell>
        <mxCell id="fNvnmYlMusPUi0bq2ksU-3" value="" style="whiteSpace=wrap;html=1;aspect=fixed;fillColor=#FFE599;" parent="fNvnmYlMusPUi0bq2ksU-32" vertex="1">
          <mxGeometry x="40" width="40" height="40" as="geometry" />
        </mxCell>
        <mxCell id="fNvnmYlMusPUi0bq2ksU-4" value="" style="whiteSpace=wrap;html=1;aspect=fixed;fillColor=#FFE599;" parent="fNvnmYlMusPUi0bq2ksU-32" vertex="1">
          <mxGeometry x="80" width="40" height="40" as="geometry" />
        </mxCell>
        <mxCell id="fNvnmYlMusPUi0bq2ksU-5" value="" style="whiteSpace=wrap;html=1;aspect=fixed;fillColor=#B9E0A5;" parent="fNvnmYlMusPUi0bq2ksU-32" vertex="1">
          <mxGeometry x="80" y="40" width="40" height="40" as="geometry" />
        </mxCell>
        <mxCell id="fNvnmYlMusPUi0bq2ksU-6" value="" style="whiteSpace=wrap;html=1;aspect=fixed;fillColor=#B9E0A5;" parent="fNvnmYlMusPUi0bq2ksU-32" vertex="1">
          <mxGeometry y="40" width="40" height="40" as="geometry" />
        </mxCell>
        <mxCell id="fNvnmYlMusPUi0bq2ksU-7" value="" style="whiteSpace=wrap;html=1;aspect=fixed;fillColor=#B9E0A5;" parent="fNvnmYlMusPUi0bq2ksU-32" vertex="1">
          <mxGeometry x="40" y="40" width="40" height="40" as="geometry" />
        </mxCell>
        <mxCell id="fNvnmYlMusPUi0bq2ksU-8" value="" style="whiteSpace=wrap;html=1;aspect=fixed;fillColor=#F19C99;" parent="fNvnmYlMusPUi0bq2ksU-32" vertex="1">
          <mxGeometry x="80" y="80" width="40" height="40" as="geometry" />
        </mxCell>
        <mxCell id="fNvnmYlMusPUi0bq2ksU-9" value="" style="whiteSpace=wrap;html=1;aspect=fixed;fillColor=#F19C99;" parent="fNvnmYlMusPUi0bq2ksU-32" vertex="1">
          <mxGeometry y="80" width="40" height="40" as="geometry" />
        </mxCell>
        <mxCell id="fNvnmYlMusPUi0bq2ksU-10" value="" style="whiteSpace=wrap;html=1;aspect=fixed;fillColor=#F19C99;" parent="fNvnmYlMusPUi0bq2ksU-32" vertex="1">
          <mxGeometry x="40" y="80" width="40" height="40" as="geometry" />
        </mxCell>
        <mxCell id="fNvnmYlMusPUi0bq2ksU-33" value="" style="group" parent="1" vertex="1" connectable="0">
          <mxGeometry x="380" y="300" width="360" height="40" as="geometry" />
        </mxCell>
        <mxCell id="fNvnmYlMusPUi0bq2ksU-20" value="" style="whiteSpace=wrap;html=1;aspect=fixed;fillColor=#FFE599;" parent="fNvnmYlMusPUi0bq2ksU-33" vertex="1">
          <mxGeometry width="40" height="40" as="geometry" />
        </mxCell>
        <mxCell id="fNvnmYlMusPUi0bq2ksU-21" value="" style="whiteSpace=wrap;html=1;aspect=fixed;fillColor=#FFE599;" parent="fNvnmYlMusPUi0bq2ksU-33" vertex="1">
          <mxGeometry x="80" width="40" height="40" as="geometry" />
        </mxCell>
        <mxCell id="fNvnmYlMusPUi0bq2ksU-22" value="" style="whiteSpace=wrap;html=1;aspect=fixed;fillColor=#FFE599;" parent="fNvnmYlMusPUi0bq2ksU-33" vertex="1">
          <mxGeometry x="40" width="40" height="40" as="geometry" />
        </mxCell>
        <mxCell id="fNvnmYlMusPUi0bq2ksU-23" value="" style="whiteSpace=wrap;html=1;aspect=fixed;fillColor=#B9E0A5;" parent="fNvnmYlMusPUi0bq2ksU-33" vertex="1">
          <mxGeometry x="120" width="40" height="40" as="geometry" />
        </mxCell>
        <mxCell id="fNvnmYlMusPUi0bq2ksU-24" value="" style="whiteSpace=wrap;html=1;aspect=fixed;fillColor=#B9E0A5;" parent="fNvnmYlMusPUi0bq2ksU-33" vertex="1">
          <mxGeometry x="160" width="40" height="40" as="geometry" />
        </mxCell>
        <mxCell id="fNvnmYlMusPUi0bq2ksU-25" value="" style="whiteSpace=wrap;html=1;aspect=fixed;fillColor=#B9E0A5;" parent="fNvnmYlMusPUi0bq2ksU-33" vertex="1">
          <mxGeometry x="200" width="40" height="40" as="geometry" />
        </mxCell>
        <mxCell id="fNvnmYlMusPUi0bq2ksU-26" value="" style="whiteSpace=wrap;html=1;aspect=fixed;fillColor=#F19C99;" parent="fNvnmYlMusPUi0bq2ksU-33" vertex="1">
          <mxGeometry x="240" width="40" height="40" as="geometry" />
        </mxCell>
        <mxCell id="fNvnmYlMusPUi0bq2ksU-27" value="" style="whiteSpace=wrap;html=1;aspect=fixed;fillColor=#F19C99;" parent="fNvnmYlMusPUi0bq2ksU-33" vertex="1">
          <mxGeometry x="280" width="40" height="40" as="geometry" />
        </mxCell>
        <mxCell id="fNvnmYlMusPUi0bq2ksU-28" value="" style="whiteSpace=wrap;html=1;aspect=fixed;fillColor=#F19C99;" parent="fNvnmYlMusPUi0bq2ksU-33" vertex="1">
          <mxGeometry x="320" width="40" height="40" as="geometry" />
        </mxCell>
        <mxCell id="fNvnmYlMusPUi0bq2ksU-35" value="&lt;font style=&quot;font-size: 36px;&quot;&gt;=&lt;/font&gt;" style="text;html=1;align=center;verticalAlign=middle;whiteSpace=wrap;rounded=0;" parent="1" vertex="1">
          <mxGeometry x="330" y="305" width="40" height="30" as="geometry" />
        </mxCell>
        <mxCell id="fNvnmYlMusPUi0bq2ksU-36" value="" style="endArrow=none;html=1;rounded=0;strokeWidth=3;curved=1;" parent="1" edge="1">
          <mxGeometry width="50" height="50" relative="1" as="geometry">
            <mxPoint x="170" y="400" as="sourcePoint" />
            <mxPoint x="170" y="240" as="targetPoint" />
            <Array as="points">
              <mxPoint x="150" y="320" />
            </Array>
          </mxGeometry>
        </mxCell>
        <mxCell id="fNvnmYlMusPUi0bq2ksU-37" value="" style="endArrow=none;html=1;rounded=0;strokeWidth=3;curved=1;" parent="1" edge="1">
          <mxGeometry width="50" height="50" relative="1" as="geometry">
            <mxPoint x="310" y="240" as="sourcePoint" />
            <mxPoint x="310" y="400" as="targetPoint" />
            <Array as="points">
              <mxPoint x="330" y="320" />
            </Array>
          </mxGeometry>
        </mxCell>
      </root>
    </mxGraphModel>
  </diagram>
</mxfile>
